<?xml version="1.0" encoding="utf-8"?>
<!-- Generator: Adobe Illustrator 24.1.2, SVG Export Plug-In . SVG Version: 6.00 Build 0)  -->
<svg version="1.1" id="Warstwa_3" xmlns="http://www.w3.org/2000/svg" xmlns:xlink="http://www.w3.org/1999/xlink" x="0px" y="0px"
	 viewBox="0 0 430 430" style="enable-background:new 0 0 430 430;" xml:space="preserve">
<style type="text/css">
	.st0{fill:#121331;}
	.st1{fill:#08A88A;}
	.st2{fill:none;stroke:#08A88A;stroke-width:12.95;stroke-linecap:round;stroke-linejoin:round;stroke-miterlimit:14.8;}
	.st3{fill:none;}
</style>
<g>
	<path class="st1" d="M215,310.87c-36.56,0-66.3-29.74-66.3-66.3v-128c0-36.56,29.74-66.3,66.3-66.3s66.3,29.74,66.3,66.3v128
		C281.3,281.13,251.56,310.87,215,310.87z M215,62.87c-29.61,0-53.7,24.09-53.7,53.7v128c0,29.61,24.09,53.7,53.7,53.7
		s53.7-24.09,53.7-53.7v-128C268.7,86.96,244.61,62.87,215,62.87z"/>
	<polygon class="st1" points="208.82,302.53 208.71,252.71 155.75,252.69 155.75,240.09 275,240.14 275,252.74 221.31,252.72 
		221.42,302.5 	"/>
	<path class="st1" d="M273.25,224.42h-21c-3.48,0-6.3-2.82-6.3-6.3s2.82-6.3,6.3-6.3h21c3.48,0,6.3,2.82,6.3,6.3
		S276.73,224.42,273.25,224.42z M176.94,224.42h-21.25c-3.48,0-6.3-2.82-6.3-6.3s2.82-6.3,6.3-6.3h21.25c3.48,0,6.3,2.82,6.3,6.3
		S180.42,224.42,176.94,224.42z M273.25,200.42h-12c-3.48,0-6.3-2.82-6.3-6.3s2.82-6.3,6.3-6.3h12c3.48,0,6.3,2.82,6.3,6.3
		S276.73,200.42,273.25,200.42z M167.83,200.42h-12.14c-3.48,0-6.3-2.82-6.3-6.3s2.82-6.3,6.3-6.3h12.14c3.48,0,6.3,2.82,6.3,6.3
		S171.31,200.42,167.83,200.42z"/>
	<path class="st0" d="M215,337.73c-52,0-94.3-42.3-94.3-94.3v-22.5c0-3.48,2.82-6.3,6.3-6.3s6.3,2.82,6.3,6.3v22.5
		c0,45.05,36.65,81.7,81.7,81.7s81.7-36.65,81.7-81.7v-22.25c0-3.48,2.82-6.3,6.3-6.3s6.3,2.82,6.3,6.3v22.25
		C309.3,295.43,267,337.73,215,337.73z"/>
	<path class="st0" d="M253.12,379.73h-73c-3.48,0-6.3-2.82-6.3-6.3s2.82-6.3,6.3-6.3h30.32v-35.2c0-3.48,2.82-6.3,6.3-6.3
		s6.3,2.82,6.3,6.3v35.2h30.08c3.48,0,6.3,2.82,6.3,6.3S256.6,379.73,253.12,379.73z"/>
	<path class="st1" d="M127,185.73c-3.48,0-6.3-2.82-6.3-6.3v-16.9c0-3.48,2.82-6.3,6.3-6.3s6.3,2.82,6.3,6.3v16.9
		C133.3,182.91,130.48,185.73,127,185.73z"/>
	<path class="st1" d="M96.88,185.73c0,0-0.01,0-0.01,0c-3.48-0.01-6.29-2.83-6.29-6.31l0.12-66.5c0.01-3.48,2.83-6.29,6.3-6.29
		c0,0,0.01,0,0.01,0c3.48,0.01,6.29,2.83,6.29,6.31l-0.12,66.5C103.17,182.92,100.35,185.73,96.88,185.73z"/>
	<path class="st1" d="M66.88,185.73C66.87,185.73,66.87,185.73,66.88,185.73c-3.49,0-6.3-2.83-6.3-6.31l0.12-86.97
		c0-3.48,2.82-6.29,6.3-6.29c0,0,0.01,0,0.01,0c3.48,0,6.3,2.83,6.29,6.31l-0.12,86.97C73.17,182.92,70.35,185.73,66.88,185.73z"/>
	<path class="st1" d="M36.88,185.73c0,0-0.01,0-0.01,0c-3.48-0.01-6.29-2.83-6.29-6.31l0.12-53.75c0.01-3.47,2.83-6.29,6.3-6.29
		c0,0,0.01,0,0.01,0c3.48,0.01,6.29,2.83,6.29,6.31l-0.12,53.75C43.17,182.92,40.35,185.73,36.88,185.73z"/>
	<path class="st1" d="M6.88,185.73c-0.01,0-0.02,0-0.03,0c-3.48-0.02-6.29-2.85-6.27-6.33l0.12-24.71c0.02-3.47,2.83-6.27,6.3-6.27
		c0.01,0,0.02,0,0.03,0c3.48,0.02,6.29,2.85,6.27,6.33l-0.12,24.71C13.16,182.93,10.34,185.73,6.88,185.73z"/>
	<path class="st1" d="M127,202.13c-3.48,0-6.3-2.82-6.3-6.3v-16.9c0-3.48,2.82-6.3,6.3-6.3s6.3,2.82,6.3,6.3v16.9
		C133.3,199.31,130.48,202.13,127,202.13z"/>
	<path class="st1" d="M97,251.73c-3.47,0-6.29-2.81-6.3-6.29l-0.12-66.5c-0.01-3.48,2.81-6.31,6.29-6.31c0,0,0.01,0,0.01,0
		c3.47,0,6.29,2.81,6.3,6.29l0.12,66.5c0.01,3.48-2.81,6.31-6.29,6.31C97.01,251.73,97,251.73,97,251.73z"/>
	<path class="st1" d="M67,272.2c-3.48,0-6.29-2.81-6.3-6.29l-0.12-86.97c0-3.48,2.81-6.3,6.29-6.31c0,0,0.01,0,0.01,0
		c3.48,0,6.29,2.81,6.3,6.29l0.12,86.97C73.3,269.37,70.49,272.2,67,272.2C67.01,272.2,67,272.2,67,272.2z"/>
	<path class="st1" d="M37,238.98c-3.47,0-6.29-2.81-6.3-6.29l-0.12-53.75c-0.01-3.48,2.81-6.31,6.29-6.31c0,0,0.01,0,0.01,0
		c3.47,0,6.29,2.81,6.3,6.29l0.12,53.75c0.01,3.48-2.81,6.31-6.29,6.31C37.01,238.98,37,238.98,37,238.98z"/>
	<path class="st1" d="M7,209.94c-3.46,0-6.28-2.8-6.3-6.27l-0.12-24.71c-0.02-3.48,2.79-6.31,6.27-6.33c0.01,0,0.02,0,0.03,0
		c3.46,0,6.28,2.8,6.3,6.27l0.12,24.71c0.02,3.48-2.79,6.31-6.27,6.33C7.02,209.94,7.01,209.94,7,209.94z"/>
	<path class="st1" d="M303,186.23c-3.48,0-6.3-2.82-6.3-6.3v-16.9c0-3.48,2.82-6.3,6.3-6.3s6.3,2.82,6.3,6.3v16.9
		C309.3,183.41,306.48,186.23,303,186.23z"/>
	<path class="st1" d="M333.12,186.23c-3.47,0-6.29-2.81-6.3-6.29l-0.12-66.5c-0.01-3.48,2.81-6.31,6.29-6.31c0,0,0.01,0,0.01,0
		c3.47,0,6.29,2.81,6.3,6.29l0.12,66.5c0.01,3.48-2.81,6.31-6.29,6.31C333.13,186.23,333.13,186.23,333.12,186.23z"/>
	<path class="st1" d="M363.12,186.23c-3.48,0-6.29-2.81-6.3-6.29l-0.12-86.97c0-3.48,2.81-6.3,6.29-6.31c0,0,0.01,0,0.01,0
		c3.48,0,6.29,2.81,6.3,6.29l0.12,86.97C369.43,183.4,366.61,186.23,363.12,186.23C363.13,186.23,363.13,186.23,363.12,186.23z"/>
	<path class="st1" d="M393.12,186.23c-3.47,0-6.29-2.81-6.3-6.29l-0.12-53.75c-0.01-3.48,2.81-6.31,6.29-6.31c0,0,0.01,0,0.01,0
		c3.47,0,6.29,2.81,6.3,6.29l0.12,53.75c0.01,3.48-2.81,6.31-6.29,6.31C393.13,186.23,393.13,186.23,393.12,186.23z"/>
	<path class="st1" d="M423.12,186.23c-3.46,0-6.28-2.8-6.3-6.27l-0.12-24.71c-0.02-3.48,2.79-6.31,6.27-6.33c0.01,0,0.02,0,0.03,0
		c3.46,0,6.28,2.8,6.3,6.27l0.12,24.71c0.02,3.48-2.79,6.31-6.27,6.33C423.15,186.23,423.13,186.23,423.12,186.23z"/>
	<path class="st1" d="M303,203.63c-3.48,0-6.3-2.82-6.3-6.3v-16.9c0-3.48,2.82-6.3,6.3-6.3s6.3,2.82,6.3,6.3v16.9
		C309.3,200.81,306.48,203.63,303,203.63z"/>
	<path class="st1" d="M333,253.23c0,0-0.01,0-0.01,0c-3.48-0.01-6.29-2.83-6.29-6.31l0.12-66.5c0.01-3.48,2.83-6.29,6.3-6.29
		c0,0,0.01,0,0.01,0c3.48,0.01,6.29,2.83,6.29,6.31l-0.12,66.5C339.29,250.42,336.47,253.23,333,253.23z"/>
	<path class="st1" d="M363,273.7C363,273.7,362.99,273.7,363,273.7c-3.49,0-6.3-2.83-6.3-6.31l0.12-86.97c0-3.48,2.82-6.29,6.3-6.29
		c0,0,0.01,0,0.01,0c3.48,0,6.3,2.83,6.29,6.31l-0.12,86.97C369.29,270.89,366.48,273.7,363,273.7z"/>
	<path class="st1" d="M393,240.48c0,0-0.01,0-0.01,0c-3.48-0.01-6.29-2.83-6.29-6.31l0.12-53.75c0.01-3.47,2.83-6.29,6.3-6.29
		c0,0,0.01,0,0.01,0c3.48,0.01,6.29,2.83,6.29,6.31l-0.12,53.75C399.29,237.67,396.47,240.48,393,240.48z"/>
	<path class="st1" d="M423,211.44c-0.01,0-0.02,0-0.03,0c-3.48-0.02-6.29-2.85-6.27-6.33l0.12-24.71c0.02-3.47,2.83-6.27,6.3-6.27
		c0.01,0,0.02,0,0.03,0c3.48,0.02,6.29,2.85,6.27,6.33l-0.12,24.71C429.28,208.64,426.46,211.44,423,211.44z"/>
</g>
</svg>
